<svg width="6" height="6" viewBox="0 0 6 6" fill="none" xmlns="http://www.w3.org/2000/svg">
<path d="M2.58806 1.29556C2.70193 0.38457 3.94664 0.208822 4.30829 1.05267L4.32881 1.10055C4.43713 1.35329 4.65347 1.54385 4.91787 1.61939L5.01058 1.64588C6.01768 1.93362 6.11044 3.32458 5.15047 3.7435L4.90131 3.85223C4.64194 3.96541 4.43023 4.16561 4.30275 4.41826L4.2566 4.5097C3.71836 5.57638 2.20942 5.61519 1.61706 4.57758L1.45061 4.286C1.35456 4.11776 1.20845 3.98365 1.03261 3.90234C0.176592 3.5065 0.383372 2.23518 1.32072 2.13103L1.79442 2.0784C2.20819 2.03242 2.53642 1.70866 2.58806 1.29556Z" fill="#D9D9D9"/>
</svg>
